<svg width="1000" height="1000" xmlns="http://www.w3.org/2000/svg">
 <metadata>Svg Vector Icons : http://www.onlinewebfonts.com/icon</metadata>

 <g>
  <title>background</title>
  <rect fill="#f4f4f4" id="canvas_background" height="1002" width="1002" y="-1" x="-1"/>
 </g>
 <g>
  <title>Layer 1</title>
  <path opacity="0.06" stroke="null" id="svg_3" d="m463.633427,156.980343c-87.625839,16.047346 -152.527044,78.835597 -166.766514,161.546202c-2.18902,13.825237 -2.18902,27.661421 0,56.428423c1.918102,20.743329 3.836204,40.107419 4.659796,42.603186c1.09451,3.316743 -0.552673,5.812511 -4.930714,7.465409c-6.025225,2.211162 -15.604898,11.614075 -19.712021,18.805826c-0.823592,1.652899 -3.012612,9.676572 -4.378041,17.426586c-5.754306,30.978164 8.214245,81.605023 29.302531,105.117779c6.848816,7.750014 13.697633,13.836184 15.604898,13.836184c1.918102,0 4.930714,9.402913 7.672408,22.954491c5.201633,28.767002 16.157572,53.658997 33.409654,76.33983l13.144959,17.426586l-1.09451,36.50607c-1.09451,38.45452 -3.554449,46.751852 -16.42849,58.924191c-3.554449,3.316743 -10.955939,8.023673 -16.42849,10.234835c-13.415878,5.812511 -114.197513,37.064334 -165.130167,51.447835c-46.825532,13.27792 -73.939042,24.891995 -98.581778,42.59224c-57.781471,41.771263 -96.121839,118.669357 -105.983268,212.44672c-3.034286,27.387762 -2.752531,30.157188 1.896429,35.411435c4.930714,5.527906 5.754306,5.527906 527.152971,5.527906c502.510236,0 522.493175,-0.273659 526.611134,-4.980588c5.754306,-6.359828 5.754306,-15.489082 0.270918,-52.279757c-10.685021,-73.58135 -40.25847,-138.033447 -80.787859,-176.47702c-33.962327,-32.368351 -59.146899,-44.54069 -139.934758,-67.495181c-93.380145,-26.829499 -151.432534,-46.467247 -161.023044,-54.49092c-14.792143,-12.719656 -17.523,-21.016988 -18.617511,-60.850748l-1.09451,-36.50607l13.144959,-17.426586c17.252082,-22.680833 28.208021,-47.572828 33.409654,-76.33983c2.470776,-12.719656 5.754306,-22.954491 7.390653,-22.954491c5.201633,0 22.724633,-20.196012 29.57345,-34.579513c15.063062,-30.704506 21.359205,-76.066171 13.144959,-96.820447c-4.107123,-10.508494 -13.415878,-20.469671 -21.911878,-23.786414c-4.648959,-1.937504 -6.025225,-4.148666 -4.930714,-8.855595c0.823592,-3.316743 3.012612,-22.407174 4.930714,-42.603186c2.18902,-27.661421 2.18902,-40.939341 0,-55.049183c-12.863204,-74.139614 -68.455655,-134.716703 -143.218289,-156.018296c-22.453715,-6.359828 -69.83192,-9.402913 -90.367533,-5.527906zm79.42243,32.083746c41.623899,10.793099 78.598838,36.790675 101.59439,71.643847c25.195409,38.169915 30.126123,72.202111 20.806531,146.604437c-2.18902,18.258508 -4.107123,33.473932 -4.107123,33.747591c-0.270918,3.590402 10.685021,9.129254 17.804755,9.129254c13.415878,0 16.157572,6.918092 14.23947,34.294908c-2.18902,36.232411 -19.170184,71.370188 -32.85698,68.874421c-9.579674,-1.937504 -15.604898,5.812511 -15.604898,19.364089c-0.270918,32.642009 -15.604898,72.749428 -37.245858,95.988525l-12.050449,13.004261l0,41.497605c0,47.299169 3.283531,63.072856 17.252082,81.605023c5.472551,6.918092 15.063062,14.930819 23.82998,19.637748c16.699409,8.57099 73.115451,26.829499 160.199453,52.006099c62.159512,17.98485 87.084002,28.219685 111.455819,46.751852c30.949715,23.239097 59.428654,67.495181 74.209961,115.068009c7.672408,24.071019 15.604898,63.346515 15.604898,76.066171l0,8.023673l-501.144807,0l-501.13397,0l0,-10.508494c0,-13.551579 9.037837,-55.596501 16.710245,-78.003675c15.33398,-45.088007 42.989327,-87.691193 71.750022,-109.540103c23.82998,-18.258508 49.296307,-29.598925 95.027329,-42.59224c78.317083,-22.407174 157.739514,-47.857433 174.438922,-55.596501c17.804755,-8.57099 27.384429,-17.98485 36.964103,-36.790675c5.201633,-9.961177 6.025225,-16.868322 7.119735,-58.639586l1.09451,-47.299169l-12.603123,-14.41634c-22.182796,-25.165654 -36.964103,-63.620174 -37.245858,-96.262183c0,-13.551579 -6.025225,-21.301593 -15.604898,-19.364089c-13.697633,2.495767 -30.66796,-32.642009 -32.85698,-68.874421c-1.918102,-27.387762 0.823592,-34.294908 14.23947,-34.294908c7.119735,0 18.075674,-5.527906 17.804755,-9.129254c0,-0.273659 -1.918102,-15.489082 -4.107123,-33.747591c-9.308755,-74.413273 -4.378041,-108.434522 20.817368,-146.604437c41.060389,-61.68267 119.377472,-91.007936 193.59827,-71.643847z"/>
 </g>
</svg>