<svg width="3800" height="4800" xmlns="http://www.w3.org/2000/svg">

 <g>
  <title>background</title>
  <rect fill="none" id="canvas_background" height="40006.055451" width="31671.877232" y="-1" x="-1"/>
 </g>
 <g>
  <title>Layer 1</title>
  <path id="svg_2" d="m0,4800l3800,0l0,-3960l-840,-840l-2960,0" fill="#e5e3e3"/>
  <path id="svg_3" d="m2960,840l840,0l-840,-840" fill="#efefef"/>
  <path id="svg_4" d="m3800,1680l0,-840l-840,0" fill="#d1d1d1"/>
  <g stroke="null" id="svg_5">
   <path stroke="null" id="svg_6" d="m371.422413,1976l3085.726759,0l0,-212l-3085.726759,0m0,670l3085.726759,0l0,-211l-3085.726759,0m0,670l3085.726759,0l0,-212l-3085.726759,0m0,635l1851.436056,0l0,-176l-1851.436056,0" fill="#FFF"/>
  </g>
 </g>
</svg>