<svg width="3800" height="4800" xmlns="http://www.w3.org/2000/svg">
 <g>
  <title>background</title>
  <rect x="-1" y="-1" width="31671.877232" height="40006.055451" id="canvas_background" fill="none"/>
 </g>

 <g>
  <title>Layer 1</title>
  <path fill="#0F9D57" d="m0,4800l3800,0l0,-3960l-840,-840l-2960,0" id="svg_2"/>
  <path fill="#57BB8A" d="m2960,840l840,0l-840,-840" id="svg_3"/>
  <path fill="#098540" d="m3800,1680l0,-840l-840,0" id="svg_4"/>
  <g id="svg_5">
   <path fill="#FFF" d="m1695,2455.303862l1023,0l0,424l-1023,0l0,-424zm-635,0l459,0l0,424l-459,0l0,-424zm635,-635l1023,0l0,459l-1023,0l0,-459zm-635,0l459,0l0,459l-459,0l0,-459zm635,-599l1023,0l0,458l-1023,0l0,-458zm-635,0l459,0l0,458l-459,0l0,-458zm-176,1834l2011,0l0,-2011l-2011,0l0,2011z" id="svg_6"/>
  </g>
  <rect fill="#098540" stroke="null" stroke-width="null" stroke-opacity="null" x="-64.444839" y="3713.800784" width="3953.914454" height="1092.748509" id="svg_17"/>
  <g id="svg_16" stroke="null">
   <path fill="#ffffff" d="m1720.391994,4306.293921c0,118.043966 -92.346063,205.028596 -205.675666,205.028596s-205.675666,-86.98463 -205.675666,-205.028596c0,-118.875913 92.346063,-205.028596 205.675666,-205.028596s205.675666,86.152683 205.675666,205.028596zm-90.0351,0c0,-73.765924 -53.521892,-124.237346 -115.640565,-124.237346s-115.640565,50.471422 -115.640565,124.237346c0,73.026416 53.521892,124.237346 115.640565,124.237346s115.640565,-51.303368 115.640565,-124.237346z" id="svg_10" stroke="null"/>
   <path fill="#ffffff" d="m2164.096801,4306.293921c0,118.043966 -92.346063,205.028596 -205.675666,205.028596s-205.675666,-86.98463 -205.675666,-205.028596c0,-118.783474 92.346063,-205.028596 205.675666,-205.028596s205.675666,86.152683 205.675666,205.028596zm-90.0351,0c0,-73.765924 -53.521892,-124.237346 -115.640565,-124.237346s-115.640565,50.471422 -115.640565,124.237346c0,73.026416 53.521892,124.237346 115.640565,124.237346s115.640565,-51.303368 115.640565,-124.237346z" id="svg_11" stroke="null"/>
   <path fill="#ffffff" d="m2589.313908,4113.652084l0,368.090113c0,151.414265 -89.295592,213.255623 -194.860361,213.255623c-99.371389,0 -159.1791,-66.463283 -181.734094,-120.817121l78.387849,-32.630791c13.958214,33.370299 48.160459,72.749101 103.253806,72.749101c67.572545,0 109.447186,-41.689764 109.447186,-120.170052l0,-29.487882l-3.142909,0c-20.151593,24.865957 -58.975764,46.589005 -107.96817,46.589005c-102.514298,0 -196.431816,-89.295592 -196.431816,-204.19665c0,-115.733004 93.917518,-205.768104 196.431816,-205.768104c48.899967,0 87.724138,21.723048 107.96817,45.849497l3.142909,0l0,-33.370299l85.505614,0l0,-0.092439l0,-0.000001zm-79.127357,193.473784c0,-72.19447 -48.160459,-124.976854 -109.447186,-124.976854c-62.118673,0 -114.161549,52.782384 -114.161549,124.976854c0,71.454962 52.042876,123.497838 114.161549,123.497838c61.286726,0 109.447186,-52.042876 109.447186,-123.497838z" id="svg_12" stroke="null"/>
   <path fill="#ffffff" d="m2730.282623,3897.900622l0,600.85026l-87.816576,0l0,-600.85026l87.816576,0z" id="svg_13" stroke="null"/>
   <path fill="#ffffff" d="m3072.489955,4373.774027l69.883507,46.589005c-22.554994,33.370299 -76.908833,90.867047 -170.826351,90.867047c-116.472512,0 -203.457142,-90.0351 -203.457142,-205.028596c0,-121.926383 87.724138,-205.028596 193.381345,-205.028596c106.396715,0 158.439592,84.673667 175.448276,130.430726l9.336289,23.294502l-274.080157,113.51448c20.98354,41.135133 53.614331,62.118673 99.371389,62.118673c45.849497,0 77.648341,-22.554994 100.942844,-56.75724l0,-0.000001zm-215.104393,-73.765924l183.21311,-76.076887c-10.075797,-25.605465 -40.395625,-43.446096 -76.076887,-43.446096c-45.757058,0 -109.447186,40.395625 -107.136223,119.522982l0,0.000001z" id="svg_14" stroke="null"/>
   <path fill="#ffffff" d="m976.631811,4252.956906l0,-86.98463l293.122488,0c2.865594,15.159914 4.34461,33.092984 4.34461,52.505069c0,65.261582 -17.840631,145.960394 -75.337379,203.457142c-55.925293,58.236256 -127.380255,89.295592 -222.037281,89.295592c-175.448276,0 -322.980124,-142.909923 -322.980124,-318.358199c0,-175.448276 147.531848,-318.358199 322.980124,-318.358199c97.060427,0 166.204426,38.084663 218.154864,87.724138l-61.379165,61.379165c-37.252716,-34.941754 -87.724138,-62.118673 -156.868137,-62.118673c-128.119763,0 -228.323099,103.253806 -228.323099,231.373569c0,128.119763 100.203336,231.373569 228.323099,231.373569c83.102213,0 130.430726,-33.370299 160.750554,-63.690128c24.588641,-24.588641 40.765379,-59.715272 47.143636,-107.690854l-207.89419,0.092439z" id="svg_15" stroke="null"/>
  </g>
 </g>
</svg>