<svg width="3800" height="4800" xmlns="http://www.w3.org/2000/svg">
 <g>
  <title>background</title>
  <rect x="-1" y="-1" width="76007.792584" height="96009.316948" id="canvas_background" fill="none"/>
 </g>

 <g>
  <title>Layer 1</title>
  <path fill="#e5e3e3" d="m0,4800l3800,0l0,-3960l-840,-840l-2960,0" id="svg_2"/>
  <path fill="#efefef" d="m2960,840l840,0l-840,-840" id="svg_3"/>
  <path fill="#d1d1d1" d="m3800,1680l0,-840l-840,0" id="svg_4"/>
  <g id="svg_5" stroke="null">
   <path fill="#FFF" d="m371.42241,1836.000025l3085.72676,0l0,-212l-3085.72676,0m0,670l3085.72676,0l0,-211l-3085.72676,0m0,670l3085.72676,0l0,-212l-3085.72676,0m0,635l1851.43606,0l0,-176l-1851.43606,0" id="svg_6" stroke="null"/>
  </g>
  <rect id="svg_17" height="1092.748509" width="3953.914454" y="3713.800784" x="-44.443315" stroke-opacity="null" stroke-width="null" stroke="null" fill="#d1d1d1"/>
  <g stroke="null" id="svg_16">
   <path stroke="null" id="svg_7" d="m1740.39351,4306.29392c0,118.04397 -92.34606,205.0286 -205.67566,205.0286s-205.67567,-86.98463 -205.67567,-205.0286c0,-118.87591 92.34606,-205.02859 205.67567,-205.02859s205.67566,86.15268 205.67566,205.02859zm-90.0351,0c0,-73.76592 -53.52189,-124.23734 -115.64056,-124.23734s-115.64057,50.47142 -115.64057,124.23734c0,73.02642 53.5219,124.23735 115.64057,124.23735s115.64056,-51.30337 115.64056,-124.23735z" fill="#ffffff"/>
   <path stroke="null" id="svg_8" d="m2184.09832,4306.29392c0,118.04397 -92.34606,205.0286 -205.67566,205.0286s-205.67567,-86.98463 -205.67567,-205.0286c0,-118.78347 92.34606,-205.02859 205.67567,-205.02859s205.67566,86.15268 205.67566,205.02859zm-90.0351,0c0,-73.76592 -53.52189,-124.23734 -115.64056,-124.23734s-115.64057,50.47142 -115.64057,124.23734c0,73.02642 53.52189,124.23735 115.64057,124.23735s115.64056,-51.30337 115.64056,-124.23735z" fill="#ffffff"/>
   <path stroke="null" id="svg_9" d="m2609.31543,4113.65208l0,368.09012c0,151.41426 -89.29559,213.25562 -194.86036,213.25562c-99.37139,0 -159.1791,-66.46328 -181.7341,-120.81712l78.38785,-32.63079c13.95822,33.3703 48.16046,72.7491 103.25381,72.7491c67.57254,0 109.44718,-41.68976 109.44718,-120.17005l0,-29.48788l-3.1429,0c-20.1516,24.86595 -58.97577,46.589 -107.96817,46.589c-102.5143,0 -196.43182,-89.29559 -196.43182,-204.19665c0,-115.733 93.91752,-205.7681 196.43182,-205.7681c48.89996,0 87.72413,21.72304 107.96817,45.84949l3.1429,0l0,-33.3703l85.50562,0l0,-0.09243l0,-0.00001zm-79.12736,193.47379c0,-72.19447 -48.16046,-124.97686 -109.44718,-124.97686c-62.11868,0 -114.16155,52.78239 -114.16155,124.97686c0,71.45496 52.04287,123.49784 114.16155,123.49784c61.28672,0 109.44718,-52.04288 109.44718,-123.49784z" fill="#ffffff"/>
   <path stroke="null" id="svg_10" d="m2750.28414,3897.90062l0,600.85026l-87.81657,0l0,-600.85026l87.81657,0z" fill="#ffffff"/>
   <path stroke="null" id="svg_11" d="m3092.49148,4373.77403l69.8835,46.589c-22.55499,33.3703 -76.90883,90.86705 -170.82635,90.86705c-116.47251,0 -203.45714,-90.0351 -203.45714,-205.0286c0,-121.92638 87.72414,-205.02859 193.38134,-205.02859c106.39672,0 158.4396,84.67366 175.44828,130.43072l9.33629,23.2945l-274.08016,113.51448c20.98354,41.13514 53.61433,62.11868 99.37139,62.11868c45.8495,0 77.64834,-22.555 100.94284,-56.75724l0,0l0.00001,0zm-215.1044,-73.76593l183.21311,-76.07688c-10.07579,-25.60547 -40.39562,-43.4461 -76.07689,-43.4461c-45.75705,0 -109.44718,40.39563 -107.13622,119.52298l0,0z" fill="#ffffff"/>
   <path stroke="null" id="svg_12" d="m996.63333,4252.95691l0,-86.98463l293.12249,0c2.86559,15.15991 4.34461,33.09298 4.34461,52.50507c0,65.26158 -17.84063,145.96039 -75.33738,203.45714c-55.92529,58.23625 -127.38026,89.29559 -222.03728,89.29559c-175.44828,0 -322.98013,-142.90992 -322.98013,-318.3582c0,-175.44828 147.53185,-318.3582 322.98013,-318.3582c97.06043,0 166.20442,38.08466 218.15486,87.72414l-61.37916,61.37916c-37.25272,-34.94175 -87.72414,-62.11867 -156.86814,-62.11867c-128.11976,0 -228.3231,103.25381 -228.3231,231.37357c0,128.11976 100.20334,231.37357 228.3231,231.37357c83.10221,0 130.43073,-33.3703 160.75055,-63.69013c24.58865,-24.58864 40.76538,-59.71527 47.14364,-107.69085l-207.89419,0.09244z" fill="#ffffff"/>
  </g>
 </g>
</svg>