<svg width="3799.9999999999995" height="4800" xmlns="http://www.w3.org/2000/svg">

 <g>
  <title>background</title>
  <rect fill="none" id="canvas_background" height="402" width="582" y="-1" x="-1"/>
 </g>
 <g>
  <title>Layer 1</title>
  <path id="svg_2" d="m0,4800l3800,0l0,-3960l-840,-840l-2960,0" fill="#3980FB"/>
  <path id="svg_3" d="m2960,840l840,0l-840,-840" fill="#9EC2FF"/>
  <path id="svg_4" d="m3800,1680l0,-840l-840,0" fill="#1f53b1"/>
  <g id="svg_5">
   <path id="svg_6" d="m900,1726.005617l2000,0l0,-212l-2000,0m0,670l2000,0l0,-211l-2000,0m0,670l2000,0l0,-212l-2000,0m0,635l1200,0l0,-176l-1200,0" fill="#FFF"/>
  </g>
  <rect id="svg_17" height="1092.748509" width="3953.914454" y="3713.800784" x="-64.444839" stroke-opacity="null" stroke-width="null" stroke="null" fill="#1f53b1"/>
  <g stroke="null" id="svg_16">
   <path stroke="null" id="svg_8" d="m1720.391994,4306.293921c0,118.043967 -92.346063,205.028597 -205.675666,205.028597s-205.675666,-86.98463 -205.675666,-205.028597c0,-118.875913 92.346063,-205.028596 205.675666,-205.028596s205.675666,86.152683 205.675666,205.028596zm-90.0351,0c0,-73.765924 -53.521893,-124.237346 -115.640566,-124.237346s-115.640565,50.471422 -115.640565,124.237346c0,73.026416 53.521892,124.237346 115.640565,124.237346s115.640566,-51.303368 115.640566,-124.237346z" fill="#ffffff"/>
   <path stroke="null" id="svg_9" d="m2164.096801,4306.293921c0,118.043967 -92.346063,205.028597 -205.675666,205.028597s-205.675665,-86.98463 -205.675665,-205.028597c0,-118.783474 92.346063,-205.028596 205.675665,-205.028596s205.675666,86.152683 205.675666,205.028596zm-90.0351,0c0,-73.765924 -53.521893,-124.237346 -115.640566,-124.237346s-115.640565,50.471422 -115.640565,124.237346c0,73.026416 53.521892,124.237346 115.640565,124.237346s115.640566,-51.303368 115.640566,-124.237346z" fill="#ffffff"/>
   <path stroke="null" id="svg_10" d="m2589.313908,4113.652084l0,368.090113c0,151.414266 -89.295592,213.255623 -194.860361,213.255623c-99.371389,0 -159.1791,-66.463283 -181.734094,-120.817121l78.387849,-32.630791c13.958214,33.370299 48.16046,72.7491 103.253806,72.7491c67.572545,0 109.447186,-41.689764 109.447186,-120.170052l0,-29.487882l-3.142909,0c-20.151593,24.865957 -58.975764,46.589005 -107.96817,46.589005c-102.514298,0 -196.431815,-89.295592 -196.431815,-204.19665c0,-115.733004 93.917517,-205.768104 196.431815,-205.768104c48.899968,0 87.724138,21.723048 107.96817,45.849497l3.142909,0l0,-33.370299l85.505614,0l0,-0.092439zm-79.127357,193.473784c0,-72.19447 -48.160459,-124.976854 -109.447186,-124.976854c-62.118673,0 -114.161549,52.782384 -114.161549,124.976854c0,71.454961 52.042876,123.497838 114.161549,123.497838c61.286727,0 109.447186,-52.042877 109.447186,-123.497838z" fill="#ffffff"/>
   <path stroke="null" id="svg_11" d="m2730.282623,3897.900622l0,600.850259l-87.816576,0l0,-600.850259l87.816576,0z" fill="#ffffff"/>
   <path stroke="null" id="svg_12" d="m3072.489955,4373.774027l69.883508,46.589005c-22.554995,33.370299 -76.908834,90.867047 -170.826351,90.867047c-116.472512,0 -203.457142,-90.0351 -203.457142,-205.028596c0,-121.926384 87.724138,-205.028597 193.381345,-205.028597c106.396715,0 158.439592,84.673668 175.448276,130.430726l9.336289,23.294502l-274.080157,113.51448c20.98354,41.135133 53.614331,62.118673 99.371389,62.118673c45.849497,0 77.648341,-22.554994 100.942843,-56.75724zm-215.104393,-73.765924l183.21311,-76.076887c-10.075796,-25.605464 -40.395625,-43.446095 -76.076886,-43.446095c-45.757059,0 -109.447186,40.395625 -107.136224,119.522982z" fill="#ffffff"/>
   <path stroke="null" id="svg_13" d="m976.631811,4252.956906l0,-86.98463l293.122488,0c2.865594,15.159914 4.34461,33.092984 4.34461,52.505069c0,65.261582 -17.840631,145.960394 -75.337379,203.457142c-55.925293,58.236256 -127.380255,89.295592 -222.03728,89.295592c-175.448276,0 -322.980125,-142.909923 -322.980125,-318.358199c0,-175.448276 147.531849,-318.358199 322.980125,-318.358199c97.060426,0 166.204425,38.084662 218.154863,87.724138l-61.379165,61.379165c-37.252716,-34.941754 -87.724138,-62.118673 -156.868137,-62.118673c-128.119763,0 -228.323099,103.253806 -228.323099,231.373569c0,128.119763 100.203336,231.373569 228.323099,231.373569c83.102213,0 130.430726,-33.370299 160.750554,-63.690127c24.588642,-24.588642 40.765379,-59.715272 47.143636,-107.690855l-207.89419,0.092439z" fill="#ffffff"/>
  </g>
 </g>
</svg>