<svg width="3800" height="4800" xmlns="http://www.w3.org/2000/svg">
 <g>
  <title>background</title>
  <rect fill="none" id="canvas_background" height="19203.012431" width="15202.801508" y="-1" x="-1"/>
 </g>

 <g>
  <title>Layer 1</title>
  <g stroke="null" id="svg_1">
   <g stroke="null" id="svg_5">
    <path stroke="null" id="svg_1" fill="#e67e22" d="m495.157892,681.475387c-202.576671,0 -366.654591,176.039783 -366.654591,391.19954l0,1564.79821l0,391.19954l0,195.59977l0,1173.598619c0,217.115766 164.07792,391.19954 366.654591,391.19954l366.654639,0l2199.92774,0l366.654591,0c202.576671,0 366.654639,-174.083774 366.654639,-391.19954l0,-1173.598619l0,-195.59977l0,-391.19954l0,-782.399131l0,-782.399079c0,-215.159757 -164.077968,-391.19954 -366.654639,-391.19954l-366.654591,0l-366.654639,0l-366.654639,0l-1466.618461,0l-366.654639,0z"/>
    <path stroke="null" id="svg_2" fill="#f39c12" d="m371.605276,402.133768c-202.576671,0 -366.654591,175.061804 -366.654591,391.19954l0,1564.79821l0,391.19954l0,195.59977l0,1173.598619c0,216.137736 164.07792,391.19954 366.654591,391.19954l366.654639,0l2199.92774,0l366.654591,0c202.576671,0 366.654639,-175.061804 366.654639,-391.19954l0,-1173.598619l0,-195.59977l0,-391.19954l0,-782.399131l0,-782.399079c0,-216.137736 -164.077968,-391.19954 -366.654639,-391.19954l-366.654591,0l-366.654639,0l-366.654639,0l-1466.618461,0l-366.654639,0z"/>
    <path stroke="null" id="svg_3" fill="#e67e22" d="m371.605276,206.533998c-202.576671,0 -366.654591,175.061804 -366.654591,391.19954l0,1564.798159l0,391.199591l0,195.59977l0,1173.598619c0,216.137736 164.07792,391.19954 366.654591,391.19954l366.654639,0l2199.92774,0l366.654591,0c202.576671,0 366.654639,-175.061804 366.654639,-391.19954l0,-1173.598619l0,-195.59977l0,-391.199591l0,-782.399079l0,-782.399079c0,-216.137736 -164.077968,-391.19954 -366.654639,-391.19954l-366.654591,0l-366.654639,0l-366.654639,0l-1466.618461,0l-366.654639,0z"/>
    <path stroke="null" id="svg_4" fill="#f1c40f" d="m371.605276,10.934228c-202.576671,0 -366.654591,175.061804 -366.654591,391.19954l0,1564.798159l0,391.199591l0,195.59977l0,1173.598619c0,216.137736 164.07792,391.19954 366.654591,391.19954l366.654639,0l2199.92774,0l366.654591,0c202.576671,0 366.654639,-175.061804 366.654639,-391.19954l0,-1173.598619l0,-195.59977l0,-391.199591l0,-782.399079l0,-782.399079c0,-216.137736 -164.077968,-391.19954 -366.654639,-391.19954l-366.654591,0l-366.654639,0l-366.654639,0l-1466.618461,0l-366.654639,0z"/>
   </g>
   <path stroke="null" id="svg_6" fill="#f39c12" d="m2754.860335,2358.126733c-202.576671,0 -366.654639,176.039783 -366.654639,391.19954l0,782.399079c0,215.159757 164.077968,391.19954 366.654639,391.19954s366.654591,-176.039783 366.654591,-391.19954l0,-782.399079c0,-215.159757 -164.07792,-391.19954 -366.654591,-391.19954zm0,195.59977c101.19665,0 183.32732,78.239898 183.32732,195.59977c0,97.799885 -82.13067,195.59977 -183.32732,195.59977s-183.32732,-97.799885 -183.32732,-195.59977c0,-117.359872 82.130622,-195.59977 183.32732,-195.59977zm0,586.79931c101.19665,0 183.32732,78.239898 183.32732,195.59977l0,195.59977c0,97.799885 -82.13067,195.59977 -183.32732,195.59977s-183.32732,-97.799885 -183.32732,-195.59977l0,-195.59977c0,-117.359872 82.130622,-195.59977 183.32732,-195.59977z"/>
   <g stroke="null" id="svg_10">
    <path stroke="null" id="svg_7" fill="#34495e" d="m2388.205696,10.929444l0,1955.99775c0,215.159706 164.077968,391.19954 366.654639,391.19954s366.654591,-176.039834 366.654591,-391.19954l0,-1955.99775l-733.309231,0z"/>
    <path stroke="null" id="svg_8" fill="#95a5a6" d="m2754.860335,10.929444l0,195.59977l183.32732,0l0,-195.59977l-183.32732,0zm0,195.59977l-183.32732,0l0,195.59977l183.32732,0l0,-195.59977zm0,195.59977l0,195.59977l183.32732,0l0,-195.59977l-183.32732,0zm0,195.59977l-183.32732,0l0,195.59977l183.32732,0l0,-195.59977zm0,195.59977l0,195.59977l183.32732,0l0,-195.59977l-183.32732,0zm0,195.59977l-183.32732,0l0,195.59977l183.32732,0l0,-195.59977zm0,195.59977l0,195.59977l183.32732,0l0,-195.59977l-183.32732,0zm0,195.59977l-183.32732,0l0,195.59977l183.32732,0l0,-195.59977zm0,195.59977l0,195.599821l183.32732,0l0,-195.599821l-183.32732,0zm0,195.599821l-183.32732,0l0,195.59977l183.32732,0l0,-195.59977zm0,195.59977l0,195.59977c101.19665,0 183.32732,-97.799885 183.32732,-195.59977l-183.32732,0z"/>
    <path stroke="null" id="svg_9" fill="#ecf0f1" d="m2571.533016,10.929444l0,195.59977l183.32732,0l0,-195.59977l-183.32732,0zm0,391.19954l0,195.59977l183.32732,0l0,-195.59977l-183.32732,0zm0,391.19954l0,195.59977l183.32732,0l0,-195.59977l-183.32732,0zm0,391.19954l0,195.59977l183.32732,0l0,-195.59977l-183.32732,0zm0,391.19954l0,195.599821l183.32732,0l0,-195.599821l-183.32732,0zm0,391.199591c0,97.799885 82.130622,195.59977 183.32732,195.59977l0,-195.59977l-183.32732,0z"/>
   </g>
   <path stroke="null" id="svg_11" fill="#ecf0f1" d="m2754.860335,2162.526963c-202.576671,0 -366.654639,176.039783 -366.654639,391.19954l0,782.399079c0,215.159757 164.077968,391.19954 366.654639,391.19954s366.654591,-176.039783 366.654591,-391.19954l0,-782.399079c0,-215.159757 -164.07792,-391.19954 -366.654591,-391.19954zm0,195.59977c101.19665,0 183.32732,78.239898 183.32732,195.59977c0,97.799885 -82.13067,195.59977 -183.32732,195.59977s-183.32732,-97.799885 -183.32732,-195.59977c0,-117.359872 82.130622,-195.59977 183.32732,-195.59977zm0,586.79931c101.19665,0 183.32732,78.239898 183.32732,195.59977l0,195.59977c0,97.799885 -82.13067,195.59977 -183.32732,195.59977s-183.32732,-97.799885 -183.32732,-195.59977l0,-195.59977c0,-117.359872 82.130622,-195.59977 183.32732,-195.59977z"/>
  </g>
 </g>
</svg>